# xmcd
#
# Track frame offsets:
#	150
#	28162
#	53577
#	79675
#	99009
#	119310
#	142331
#	179409
#	196519
#	225209
#	245236
#	262776
#	276650
#	290329
#	310147
#
# Disc length: 4430 seconds
#
# Revision: 1
# Processed by: cddbd v1.5.2PL0 Copyright (c) Steve Scherf et al.
# Submitted via: audiograbber 1.83.01
#
DISCID=cb114c0f
DTITLE=Grateful Dead - 70-05-07A Dupont Gymnasium, MIT, Cambridge MA
DYEAR=1900
DGENRE=
TTITLE0=NRPS Whatcha Gonna Do?
TTITLE1=NRPS Six Days On The Road
TTITLE2=NRPS I Don't Know You
TTITLE3=NRPS Portland Woman
TTITLE4=NRPS Henry
TTITLE5=NRPS Working Man Blues
TTITLE6=NRPS All I Ever Wanted
TTITLE7=NRPS Fair Chance To Know
TTITLE8=NRPS Last Lonely Eagle
TTITLE9=NRPS Lodi
TTITLE10=NRPS The Race Is On
TTITLE11=NRPS Seasons
TTITLE12=NRPS Mama Tried
TTITLE13=NRPS Saw Mill
TTITLE14=NRPS Honky Tonk Woman
EXTD=
EXTT0=
EXTT1=
EXTT2=
EXTT3=
EXTT4=
EXTT5=
EXTT6=
EXTT7=
EXTT8=
EXTT9=
EXTT10=
EXTT11=
EXTT12=
EXTT13=
EXTT14=
PLAYORDER=
